<?xml version="1.0" standalone="no"?>
<!DOCTYPE svg PUBLIC "-//W3C//DTD SVG 20010904//EN"
 "http://www.w3.org/TR/2001/REC-SVG-20010904/DTD/svg10.dtd">
<svg version="1.0" xmlns="http://www.w3.org/2000/svg"
 width="4096.000000pt" height="4096.000000pt" viewBox="0 0 4096.000000 4096.000000"
 preserveAspectRatio="xMidYMid meet">

<g transform="translate(0.000000,4096.000000) scale(0.100000,-0.100000)"
fill="#000000" stroke="none">
<path d="M0 20480 l0 -20480 20480 0 20480 0 0 20480 0 20480 -20480 0 -20480
0 0 -20480z m24828 16623 c9 -16 12 -16 36 0 24 16 27 16 33 1 4 -12 14 -14
39 -9 28 5 34 3 34 -11 0 -11 5 -14 18 -9 41 17 49 16 55 -5 5 -18 9 -20 25
-11 15 8 23 7 32 -4 8 -9 21 -13 35 -9 18 4 25 1 30 -16 5 -15 12 -19 25 -15
13 4 20 0 25 -15 5 -15 12 -19 29 -14 14 3 27 -1 35 -10 8 -9 19 -16 27 -16 7
0 18 -9 24 -20 6 -10 16 -17 24 -14 8 3 16 -4 20 -20 4 -17 11 -23 21 -20 9 4
16 -3 20 -19 4 -15 12 -24 19 -21 7 3 18 -7 24 -21 7 -14 17 -23 22 -20 6 3
15 -6 20 -20 5 -14 14 -23 20 -20 6 3 15 -6 20 -20 5 -14 14 -23 20 -20 6 3
14 -5 20 -19 5 -14 16 -26 25 -26 8 0 15 -7 15 -16 0 -9 9 -18 20 -21 10 -3
22 -14 25 -24 4 -10 13 -19 20 -19 8 0 17 -11 21 -24 4 -15 11 -23 19 -19 9 3
17 -5 21 -22 4 -17 11 -24 21 -21 8 4 17 -4 23 -20 6 -14 14 -22 20 -19 6 3
15 -6 20 -20 5 -14 14 -23 20 -20 6 3 14 -5 20 -19 5 -14 16 -26 25 -26 8 0
15 -7 15 -16 0 -9 9 -18 20 -21 11 -3 20 -12 20 -20 0 -8 9 -17 20 -20 11 -3
23 -16 26 -29 4 -14 11 -21 19 -17 9 3 17 -5 21 -22 4 -17 11 -24 21 -21 8 4
17 -4 23 -20 6 -14 14 -22 20 -19 6 3 15 -6 20 -20 5 -14 14 -23 20 -20 6 3
14 -5 20 -19 5 -14 16 -26 25 -26 8 0 15 -7 15 -16 0 -9 9 -18 20 -21 11 -3
20 -12 20 -20 0 -8 9 -17 20 -20 10 -3 22 -14 25 -24 4 -10 13 -19 20 -19 8 0
17 -11 21 -24 4 -16 11 -23 20 -19 8 3 18 -5 24 -22 5 -14 14 -23 20 -20 6 3
15 -6 20 -20 5 -14 14 -23 20 -20 6 3 14 -5 20 -19 5 -14 16 -26 25 -26 8 0
15 -7 15 -16 0 -9 9 -18 20 -21 11 -3 20 -12 20 -20 0 -8 9 -17 20 -20 10 -3
22 -14 25 -24 4 -10 13 -19 20 -19 8 0 17 -11 21 -24 4 -16 11 -23 20 -19 8 3
18 -5 24 -22 5 -14 14 -23 20 -20 6 3 15 -6 20 -20 5 -14 14 -23 20 -20 6 3
14 -5 20 -19 5 -14 16 -26 24 -26 7 0 16 -9 19 -20 3 -11 12 -20 20 -20 8 0
17 -9 20 -20 3 -11 12 -20 21 -20 9 0 18 -11 22 -24 3 -15 11 -23 19 -20 7 3
16 -4 20 -15 3 -12 13 -21 21 -21 8 0 19 -12 24 -26 6 -14 14 -22 20 -19 6 3
15 -6 20 -20 5 -14 14 -23 20 -20 6 3 14 -5 20 -19 5 -14 16 -26 25 -26 8 0
15 -7 15 -16 0 -9 9 -18 20 -21 11 -3 20 -12 20 -20 0 -8 9 -17 20 -20 11 -3
23 -16 26 -29 4 -14 11 -21 19 -17 9 3 17 -5 20 -20 5 -17 12 -24 21 -20 8 3
18 -5 24 -22 5 -14 14 -23 20 -20 6 3 15 -6 20 -20 5 -14 14 -23 20 -20 6 3
14 -5 20 -19 5 -14 16 -26 25 -26 8 0 15 -7 15 -16 0 -9 9 -18 20 -21 11 -3
20 -12 20 -20 0 -8 9 -17 20 -20 11 -3 23 -16 26 -29 4 -14 11 -21 19 -17 9 3
17 -5 20 -20 5 -17 12 -24 21 -20 8 3 18 -5 24 -22 5 -14 14 -23 20 -20 6 3
15 -6 20 -20 5 -14 14 -23 20 -20 6 3 14 -5 20 -19 5 -14 16 -26 25 -26 8 0
15 -7 15 -16 0 -9 9 -18 19 -21 11 -3 22 -16 25 -29 4 -15 11 -21 20 -18 9 3
17 -3 21 -15 3 -12 13 -21 20 -21 8 0 17 -11 21 -24 4 -16 11 -23 20 -19 8 3
18 -5 24 -22 5 -14 14 -23 20 -20 6 3 15 -6 20 -20 5 -14 14 -23 20 -20 6 3
14 -5 20 -19 5 -14 16 -26 25 -26 8 0 15 -7 15 -16 0 -9 9 -18 19 -21 11 -3
22 -16 25 -29 4 -15 11 -21 20 -18 9 3 17 -3 21 -15 3 -12 13 -21 20 -21 8 0
17 -11 21 -24 4 -16 11 -23 20 -19 8 3 18 -5 24 -22 5 -14 14 -23 20 -20 6 3
15 -6 20 -20 5 -14 14 -23 20 -20 6 3 14 -5 20 -19 5 -14 16 -26 25 -26 8 0
15 -7 15 -16 0 -9 9 -18 19 -21 11 -3 22 -16 25 -29 4 -15 11 -21 21 -18 9 4
16 -3 20 -19 4 -16 12 -24 20 -21 7 3 16 -4 20 -15 3 -12 13 -21 21 -21 8 0
19 -12 24 -26 6 -14 14 -22 20 -19 6 3 15 -6 20 -20 5 -14 14 -23 20 -20 6 3
14 -5 20 -19 5 -14 16 -26 24 -26 7 0 16 -9 19 -20 3 -11 12 -20 20 -20 8 0
17 -9 20 -20 3 -11 12 -20 21 -20 9 0 18 -11 22 -24 3 -15 11 -23 19 -20 7 3
16 -4 20 -15 3 -12 13 -21 21 -21 8 0 19 -12 24 -26 6 -14 14 -22 20 -19 6 3
15 -6 20 -20 5 -14 14 -23 20 -20 6 3 14 -5 20 -19 5 -14 16 -26 25 -26 8 0
15 -7 15 -16 0 -9 9 -18 20 -21 11 -3 20 -12 20 -20 0 -8 9 -17 19 -20 11 -3
22 -16 25 -29 4 -13 13 -24 21 -24 8 0 15 -5 15 -10 0 -6 11 -20 25 -32 14
-12 25 -27 25 -33 0 -7 9 -24 20 -38 11 -14 20 -35 20 -46 0 -12 9 -30 19 -40
11 -11 23 -37 27 -58 4 -21 13 -47 20 -58 17 -26 44 -210 44 -299 0 -65 -21
-219 -36 -270 -3 -11 -22 -61 -42 -111 -49 -124 -138 -246 -399 -548 -51 -59
-107 -135 -124 -170 -18 -34 -42 -75 -54 -92 -30 -39 -118 -226 -156 -330 -35
-95 -72 -236 -102 -389 -19 -97 -21 -145 -21 -376 0 -226 2 -271 17 -309 9
-24 17 -68 17 -98 0 -29 7 -70 16 -91 9 -20 20 -61 25 -90 4 -30 14 -61 22
-70 8 -10 17 -36 20 -60 3 -24 12 -51 21 -61 9 -10 16 -29 16 -42 0 -14 11
-40 25 -59 14 -19 25 -44 25 -57 0 -13 7 -26 15 -29 8 -4 15 -16 15 -29 0 -12
11 -34 25 -49 14 -15 25 -33 25 -40 0 -7 9 -21 20 -31 11 -10 20 -26 20 -36 0
-23 35 -75 90 -137 9 -9 31 -39 50 -65 19 -26 52 -66 73 -88 20 -22 37 -45 37
-50 0 -5 7 -12 16 -16 8 -3 20 -16 25 -29 4 -13 15 -24 23 -24 8 0 18 -9 21
-20 3 -11 13 -20 20 -20 8 0 19 -9 25 -20 6 -11 15 -20 21 -20 5 0 25 -16 45
-35 19 -19 38 -35 43 -35 4 0 16 -9 26 -20 10 -11 24 -20 31 -20 7 0 18 -9 24
-20 6 -11 15 -18 20 -15 5 3 14 -4 20 -15 6 -11 17 -20 25 -20 7 0 17 -9 20
-20 3 -11 15 -20 25 -20 10 0 22 -9 25 -20 5 -15 12 -19 31 -14 14 4 24 2 24
-5 0 -6 11 -11 24 -11 16 0 27 -7 31 -21 5 -14 13 -19 25 -16 13 3 20 -2 24
-19 5 -20 11 -23 30 -18 16 4 25 1 29 -9 4 -10 13 -13 28 -10 14 4 25 0 31
-11 5 -9 17 -16 27 -16 10 0 21 -9 24 -21 5 -18 8 -19 28 -9 18 10 24 9 31 -5
7 -12 17 -15 34 -11 13 4 24 3 24 -1 1 -24 18 -35 39 -24 17 10 22 9 28 -4 4
-12 13 -15 30 -10 19 4 26 1 30 -15 6 -22 23 -26 41 -8 9 9 16 8 30 -5 11 -10
26 -15 35 -11 10 3 20 -2 27 -16 11 -20 13 -20 29 -6 24 22 38 20 44 -6 6 -20
7 -20 31 -5 21 14 26 15 37 1 8 -10 21 -13 41 -9 21 5 28 3 28 -9 0 -20 10
-20 40 1 13 9 25 13 27 7 12 -33 22 -38 41 -21 23 21 32 21 47 0 12 -16 14
-16 40 1 26 17 27 17 42 -4 l15 -21 25 23 24 23 18 -23 17 -23 19 20 c22 25
34 26 50 4 11 -15 15 -15 41 6 l28 22 17 -23 18 -23 23 23 c28 26 44 28 52 7
5 -14 11 -12 43 9 34 23 37 24 49 8 9 -12 17 -14 27 -7 8 6 26 19 41 29 26 18
27 18 40 1 12 -17 15 -17 50 10 28 21 40 25 48 17 19 -19 40 -14 75 20 26 25
36 29 45 20 20 -20 38 -14 80 24 29 26 43 33 51 25 18 -18 38 -13 77 23 49 44
77 59 85 46 13 -21 38 -8 95 46 56 53 66 58 133 63 4 1 45 36 90 79 109 102
269 235 337 279 30 20 78 57 105 83 64 59 92 75 109 61 10 -8 25 -1 60 26 42
32 50 35 68 24 20 -12 22 -12 84 34 10 7 18 4 28 -10 14 -20 15 -20 41 5 25
23 27 24 39 8 17 -23 22 -22 54 3 25 19 27 19 39 3 11 -15 17 -15 38 -6 34 16
45 15 45 -3 0 -19 11 -19 36 -1 17 13 21 13 35 -6 14 -18 18 -19 38 -7 19 12
24 12 36 -4 9 -12 20 -17 33 -13 13 4 22 1 26 -9 4 -12 13 -15 35 -10 21 4 30
2 35 -11 4 -9 12 -14 21 -10 10 4 20 -3 27 -19 9 -20 14 -22 30 -14 14 7 20 6
24 -6 3 -8 16 -15 28 -15 12 0 27 -9 34 -20 7 -12 17 -18 22 -15 6 3 15 -5 21
-19 7 -14 17 -22 25 -19 8 3 16 -5 19 -20 5 -17 12 -24 21 -20 8 3 18 -5 24
-22 5 -14 14 -23 20 -20 6 3 15 -6 20 -20 5 -14 14 -23 20 -20 6 3 14 -5 20
-19 5 -14 16 -26 25 -26 8 0 15 -7 15 -16 0 -9 9 -18 20 -21 11 -3 20 -12 20
-20 0 -8 9 -17 20 -20 11 -3 23 -16 26 -29 3 -13 11 -21 19 -18 7 3 16 -4 20
-15 3 -12 13 -21 21 -21 8 0 19 -12 24 -26 6 -14 14 -22 20 -19 6 3 15 -6 20
-20 5 -14 14 -23 20 -20 6 3 14 -5 20 -19 5 -14 16 -26 25 -26 8 0 15 -7 15
-16 0 -9 9 -18 20 -21 11 -3 20 -12 20 -20 0 -8 9 -17 20 -20 11 -3 23 -16 26
-29 4 -14 11 -21 19 -17 9 3 17 -5 20 -20 5 -17 12 -24 21 -20 8 3 18 -5 24
-22 5 -14 14 -23 20 -20 6 3 15 -6 20 -20 5 -14 14 -23 20 -20 6 3 14 -5 20
-19 5 -14 16 -26 25 -26 8 0 15 -7 15 -16 0 -9 9 -18 19 -21 11 -3 22 -16 25
-29 4 -15 11 -21 20 -18 9 3 17 -3 21 -15 3 -12 13 -21 20 -21 8 0 17 -11 21
-24 4 -16 11 -23 20 -19 8 3 18 -5 24 -22 5 -14 14 -23 20 -20 6 3 15 -6 20
-20 5 -14 14 -23 20 -20 6 3 14 -5 20 -19 5 -14 16 -26 25 -26 8 0 15 -7 15
-16 0 -9 9 -18 19 -21 11 -3 22 -16 25 -29 4 -15 11 -21 20 -18 9 3 17 -3 21
-15 3 -12 13 -21 20 -21 8 0 17 -11 21 -24 4 -16 11 -23 20 -19 8 3 18 -5 24
-22 5 -14 14 -23 20 -20 6 3 15 -6 20 -20 5 -14 14 -23 20 -20 6 3 14 -5 20
-19 5 -14 16 -26 25 -26 8 0 15 -7 15 -16 0 -9 9 -18 19 -21 11 -3 22 -16 25
-29 4 -15 11 -21 21 -18 9 4 16 -3 20 -19 4 -16 12 -24 20 -21 7 3 16 -4 20
-15 3 -12 13 -21 21 -21 8 0 19 -12 24 -26 6 -14 14 -22 20 -19 6 3 15 -6 20
-20 5 -14 14 -23 20 -20 6 3 14 -5 20 -19 5 -14 16 -26 25 -26 8 0 15 -7 15
-16 0 -9 9 -18 19 -21 11 -3 22 -16 25 -29 4 -15 11 -21 21 -18 9 4 16 -3 20
-19 4 -16 12 -24 20 -21 7 3 16 -4 20 -15 3 -12 13 -21 21 -21 8 0 19 -12 24
-26 6 -14 14 -22 20 -19 6 3 15 -6 20 -20 5 -14 14 -23 20 -20 6 3 14 -5 20
-19 5 -14 16 -26 25 -26 8 0 15 -7 15 -16 0 -9 9 -18 20 -21 11 -3 20 -12 20
-20 0 -8 9 -17 20 -20 11 -3 23 -16 26 -29 4 -14 11 -21 19 -17 9 3 17 -5 20
-20 5 -17 12 -24 21 -20 8 3 18 -5 24 -22 5 -14 14 -23 20 -20 6 3 15 -6 20
-20 5 -14 14 -23 20 -20 6 3 14 -5 20 -19 5 -14 16 -26 25 -26 8 0 15 -7 15
-16 0 -9 9 -18 20 -21 11 -3 20 -12 20 -20 0 -8 9 -17 20 -20 10 -3 22 -14 25
-24 4 -10 13 -19 20 -19 8 0 17 -11 21 -24 4 -16 11 -23 20 -19 8 3 18 -5 24
-22 5 -14 14 -23 20 -20 6 3 15 -6 20 -20 5 -14 14 -23 20 -20 6 3 14 -5 20
-19 5 -14 16 -26 25 -26 8 0 15 -7 15 -16 0 -9 9 -18 20 -21 11 -3 20 -12 20
-20 0 -8 9 -17 20 -20 10 -3 22 -14 25 -24 4 -10 13 -19 20 -19 8 0 17 -11 21
-24 4 -16 11 -23 20 -19 8 3 18 -5 24 -22 5 -14 14 -23 20 -20 6 3 15 -6 20
-20 5 -14 14 -23 20 -20 6 3 14 -5 20 -19 5 -14 16 -26 25 -26 8 0 15 -7 15
-16 0 -9 9 -18 20 -21 11 -3 20 -12 20 -20 0 -8 9 -17 20 -20 11 -3 23 -16 26
-29 3 -13 11 -21 19 -18 7 3 16 -4 20 -15 3 -12 13 -21 21 -21 8 0 19 -12 24
-26 6 -14 14 -22 20 -19 6 3 15 -6 20 -20 5 -14 14 -23 20 -20 6 3 14 -5 20
-19 5 -14 16 -26 25 -26 8 0 15 -7 15 -16 0 -9 9 -18 20 -21 11 -3 20 -12 20
-20 0 -8 9 -17 20 -20 11 -3 23 -16 26 -29 3 -13 11 -21 19 -18 7 3 16 -4 20
-15 3 -12 13 -21 21 -21 8 0 19 -12 24 -26 6 -14 14 -22 20 -19 6 3 15 -6 20
-20 5 -14 14 -23 20 -20 6 3 14 -5 20 -19 5 -14 16 -26 25 -26 8 0 15 -7 15
-16 0 -9 9 -18 20 -21 11 -3 20 -12 20 -20 0 -8 9 -17 20 -20 11 -3 23 -16 26
-29 4 -14 11 -21 19 -17 9 3 17 -5 21 -22 4 -17 11 -24 20 -21 9 3 16 -4 20
-19 3 -14 12 -25 20 -25 8 0 14 -4 14 -8 0 -5 13 -29 30 -53 16 -24 30 -54 30
-65 0 -12 6 -24 14 -27 7 -3 16 -20 20 -38 3 -18 12 -39 19 -47 6 -8 20 -51
30 -96 9 -45 22 -103 28 -131 23 -101 -9 -326 -66 -480 -24 -64 -65 -141 -136
-254 -15 -24 -1320 -1337 -2901 -2918 -2582 -2582 -2874 -2871 -2886 -2856 -7
10 -20 17 -28 15 -9 -2 -18 6 -21 17 -3 12 -12 21 -19 21 -8 0 -19 12 -24 26
-6 14 -14 22 -20 19 -6 -3 -15 6 -20 20 -5 14 -14 23 -20 20 -6 -3 -14 5 -20
19 -5 14 -16 26 -24 26 -8 0 -18 9 -21 20 -3 11 -12 20 -20 20 -8 0 -16 9 -20
19 -3 10 -15 21 -25 24 -11 3 -20 12 -20 20 0 8 -9 17 -20 20 -11 3 -20 12
-20 21 0 9 -7 16 -15 16 -9 0 -20 12 -25 26 -6 14 -14 22 -20 19 -6 -3 -15 6
-20 20 -5 14 -14 23 -20 20 -6 -3 -14 5 -20 19 -5 14 -16 26 -24 26 -8 0 -18
9 -21 20 -3 11 -12 20 -20 20 -8 0 -16 9 -20 19 -3 10 -15 21 -25 24 -11 3
-20 12 -20 20 0 8 -9 17 -20 20 -11 3 -20 12 -20 21 0 9 -7 16 -15 16 -9 0
-20 12 -25 26 -6 14 -14 22 -20 19 -6 -3 -15 6 -20 20 -5 14 -14 23 -20 20 -6
-3 -14 5 -20 19 -5 14 -16 26 -24 26 -8 0 -18 9 -21 20 -3 11 -12 20 -20 20
-8 0 -16 9 -20 19 -3 10 -15 21 -25 24 -11 3 -20 12 -20 20 0 8 -9 17 -20 20
-11 3 -20 12 -20 21 0 9 -7 16 -15 16 -9 0 -20 12 -25 26 -6 14 -14 22 -20 19
-6 -3 -15 6 -20 20 -5 14 -14 23 -20 20 -6 -3 -14 5 -20 19 -5 14 -16 26 -24
26 -8 0 -18 9 -21 20 -3 11 -12 20 -20 20 -8 0 -17 9 -20 20 -3 11 -12 20 -20
20 -8 0 -16 9 -20 19 -3 10 -15 21 -25 24 -11 3 -20 12 -20 21 0 9 -7 16 -15
16 -9 0 -20 12 -25 26 -6 14 -14 22 -20 19 -6 -3 -15 6 -20 20 -5 14 -14 23
-20 20 -6 -3 -14 5 -20 19 -5 14 -16 26 -24 26 -8 0 -18 9 -21 20 -3 11 -12
20 -20 20 -8 0 -17 9 -20 20 -3 11 -12 20 -20 20 -8 0 -16 9 -20 19 -3 10 -15
21 -25 24 -11 3 -20 12 -20 21 0 9 -7 16 -15 16 -9 0 -20 12 -25 26 -6 14 -14
22 -20 19 -6 -3 -15 6 -20 20 -5 14 -14 23 -20 20 -6 -3 -14 5 -20 19 -5 14
-16 26 -24 26 -8 0 -18 9 -21 20 -3 11 -12 20 -20 20 -8 0 -17 9 -20 20 -3 11
-12 20 -20 20 -8 0 -16 9 -20 19 -3 10 -15 21 -25 24 -11 3 -20 12 -20 21 0 9
-7 16 -15 16 -9 0 -20 12 -25 26 -6 14 -14 22 -20 19 -6 -3 -15 6 -20 20 -5
14 -14 23 -20 20 -6 -3 -15 6 -20 20 -6 17 -16 25 -24 22 -9 -4 -16 3 -20 19
-4 13 -13 24 -21 24 -7 0 -17 9 -20 20 -3 11 -12 20 -20 20 -8 0 -16 9 -20 19
-3 10 -15 21 -25 24 -11 3 -20 12 -20 21 0 9 -7 16 -15 16 -9 0 -20 12 -25 26
-6 14 -14 22 -20 19 -6 -3 -15 6 -20 20 -5 14 -14 23 -20 20 -6 -3 -15 6 -20
20 -6 17 -16 25 -24 22 -9 -4 -16 3 -20 19 -4 13 -13 24 -21 24 -7 0 -17 9
-20 20 -3 11 -12 20 -20 20 -8 0 -16 9 -20 19 -3 10 -15 21 -25 24 -11 3 -20
12 -20 21 0 9 -7 16 -15 16 -9 0 -20 12 -25 26 -6 14 -14 22 -20 19 -6 -3 -15
6 -20 20 -5 14 -14 23 -20 20 -6 -3 -14 5 -20 19 -5 14 -16 26 -24 26 -8 0
-18 9 -21 20 -3 11 -12 20 -20 20 -8 0 -17 9 -20 20 -3 11 -12 20 -20 20 -8 0
-16 9 -20 19 -3 10 -15 21 -25 24 -11 3 -20 12 -20 21 0 9 -7 16 -15 16 -9 0
-20 12 -25 26 -6 14 -14 22 -20 19 -6 -3 -15 6 -20 20 -5 14 -14 23 -20 20 -6
-3 -15 6 -20 20 -5 14 -14 23 -20 20 -6 -3 -14 5 -20 19 -5 14 -16 26 -24 26
-8 0 -18 9 -21 20 -3 11 -12 20 -20 20 -8 0 -17 9 -20 20 -3 11 -13 20 -22 20
-8 0 -17 9 -20 20 -3 11 -12 20 -19 20 -8 0 -19 12 -24 26 -6 14 -14 22 -20
19 -6 -3 -15 6 -20 20 -5 14 -14 23 -20 20 -6 -3 -15 6 -20 20 -5 14 -14 23
-20 20 -6 -3 -14 5 -20 19 -5 14 -16 26 -24 26 -8 0 -18 9 -21 20 -3 11 -12
20 -20 20 -8 0 -16 9 -20 19 -3 10 -15 21 -25 24 -11 3 -20 12 -20 21 0 9 -7
16 -15 16 -9 0 -20 12 -25 26 -6 14 -14 22 -20 19 -6 -3 -15 6 -20 20 -5 14
-14 23 -20 20 -6 -3 -15 6 -20 20 -5 14 -14 23 -20 20 -6 -3 -14 5 -20 19 -5
14 -16 26 -24 26 -8 0 -18 9 -21 20 -3 11 -12 20 -20 20 -8 0 -16 9 -20 19 -3
10 -15 21 -25 24 -11 3 -20 12 -20 21 0 9 -7 16 -15 16 -9 0 -20 12 -25 26 -6
14 -14 22 -20 19 -6 -3 -15 6 -20 20 -5 14 -14 23 -20 20 -6 -3 -15 6 -20 20
-5 14 -14 23 -20 20 -5 -3 -15 5 -22 19 -6 14 -17 26 -24 26 -7 0 -16 9 -19
20 -3 11 -12 20 -20 20 -8 0 -16 9 -20 19 -3 10 -15 21 -25 24 -11 3 -20 12
-20 21 0 9 -7 16 -15 16 -9 0 -20 12 -25 26 -6 14 -14 22 -20 19 -6 -3 -15 6
-20 20 -5 14 -14 23 -20 20 -6 -3 -15 6 -20 20 -5 14 -14 23 -20 20 -5 -3 -15
5 -22 19 -6 14 -17 26 -24 26 -7 0 -16 9 -19 20 -3 11 -12 20 -20 20 -8 0 -16
9 -20 19 -3 10 -15 21 -25 24 -11 3 -20 12 -20 21 0 9 -7 16 -15 16 -9 0 -20
12 -25 26 -6 14 -14 22 -20 19 -6 -3 -15 6 -20 20 -5 14 -14 23 -20 20 -6 -3
-15 6 -20 20 -5 14 -14 23 -20 20 -6 -3 -14 5 -20 19 -5 14 -16 26 -24 26 -8
0 -18 9 -21 20 -3 11 -12 20 -20 20 -8 0 -17 9 -20 20 -3 11 -13 20 -22 20 -8
0 -17 9 -20 20 -3 11 -12 20 -19 20 -8 0 -19 12 -24 26 -6 14 -14 22 -20 19
-6 -3 -15 6 -20 20 -5 14 -14 23 -20 20 -6 -3 -15 6 -20 20 -5 14 -14 23 -20
20 -6 -3 -14 5 -20 19 -5 14 -16 26 -24 26 -8 0 -18 9 -21 20 -3 11 -12 20
-20 20 -8 0 -17 9 -20 20 -3 11 -13 20 -22 20 -8 0 -17 9 -20 20 -3 11 -12 20
-19 20 -8 0 -19 12 -24 26 -6 14 -14 22 -20 19 -6 -3 -15 6 -20 20 -5 14 -14
23 -20 20 -6 -3 -15 6 -20 20 -5 14 -14 23 -20 20 -6 -3 -14 5 -20 19 -5 14
-16 26 -24 26 -8 0 -18 9 -21 20 -3 11 -12 20 -20 20 -8 0 -17 9 -20 20 -3 11
-13 20 -22 20 -8 0 -17 9 -20 20 -3 11 -12 20 -19 20 -8 0 -19 12 -24 26 -6
14 -14 22 -20 19 -6 -3 -15 6 -20 20 -5 14 -14 23 -20 20 -6 -3 -15 6 -20 20
-5 14 -14 23 -20 20 -6 -3 -14 5 -20 19 -5 14 -16 26 -24 26 -8 0 -18 9 -21
20 -3 11 -12 20 -20 20 -8 0 -17 9 -20 20 -3 11 -13 20 -22 20 -8 0 -17 9 -20
20 -3 11 -12 20 -19 20 -8 0 -19 12 -24 26 -6 14 -14 22 -20 19 -6 -3 -15 6
-20 20 -5 14 -14 23 -20 20 -6 -3 -15 6 -20 20 -5 14 -14 23 -20 20 -6 -3 -14
5 -20 19 -5 14 -16 26 -24 26 -8 0 -18 9 -21 20 -3 11 -12 20 -20 20 -8 0 -17
9 -20 20 -3 11 -13 20 -22 20 -8 0 -17 9 -20 20 -3 11 -12 20 -19 20 -8 0 -19
12 -24 26 -6 14 -14 22 -20 19 -6 -3 -15 6 -20 20 -5 14 -14 23 -20 20 -6 -3
-15 6 -20 20 -5 14 -14 23 -20 20 -6 -3 -14 5 -20 19 -5 14 -16 26 -24 26 -8
0 -18 9 -21 20 -3 11 -12 20 -20 20 -8 0 -17 9 -20 20 -3 11 -13 20 -22 20 -8
0 -17 9 -20 20 -3 11 -12 20 -19 20 -8 0 -19 12 -24 26 -6 14 -14 22 -20 19
-6 -3 -15 6 -20 20 -5 14 -14 23 -20 20 -6 -3 -15 6 -20 20 -5 14 -14 23 -20
20 -6 -3 -14 5 -20 19 -5 14 -16 26 -24 26 -8 0 -18 9 -21 20 -3 11 -12 20
-20 20 -8 0 -17 9 -20 20 -3 11 -12 20 -20 20 -8 0 -17 9 -20 20 -3 11 -13 20
-21 20 -8 0 -19 12 -24 26 -6 14 -14 22 -20 19 -6 -3 -15 6 -20 20 -5 14 -14
23 -20 20 -6 -3 -15 6 -20 20 -5 14 -14 23 -20 20 -6 -3 -14 5 -20 19 -5 14
-16 26 -24 26 -8 0 -18 9 -21 20 -3 11 -12 20 -20 20 -8 0 -17 9 -20 20 -3 11
-13 20 -22 20 -8 0 -17 9 -20 20 -3 11 -12 20 -20 20 -8 0 -17 9 -20 20 -3 11
-12 20 -19 20 -8 0 -19 12 -24 26 -6 14 -14 22 -20 19 -6 -3 -15 6 -20 20 -5
14 -14 23 -20 20 -6 -3 -14 5 -20 19 -5 14 -16 26 -24 26 -8 0 -18 9 -21 20
-3 11 -12 20 -20 20 -8 0 -17 9 -20 20 -3 11 -13 20 -22 20 -8 0 -17 9 -20 20
-3 11 -12 20 -20 20 -8 0 -17 9 -20 20 -3 11 -12 20 -19 20 -8 0 -19 12 -24
26 -6 14 -14 22 -20 19 -6 -3 -15 6 -20 20 -5 14 -14 23 -20 20 -6 -3 -14 5
-20 19 -5 14 -16 26 -24 26 -8 0 -18 9 -21 20 -3 11 -12 20 -20 20 -8 0 -17 9
-20 20 -3 11 -13 20 -22 20 -8 0 -17 9 -20 20 -3 11 -12 20 -20 20 -8 0 -17 9
-20 20 -3 11 -12 20 -19 20 -8 0 -19 12 -24 26 -6 14 -14 22 -20 19 -6 -3 -15
6 -20 20 -5 14 -14 23 -20 20 -6 -3 -14 5 -20 19 -5 14 -16 26 -24 26 -8 0
-18 9 -21 20 -3 11 -12 20 -20 20 -8 0 -17 9 -20 20 -3 11 -13 20 -22 20 -8 0
-17 9 -20 20 -3 11 -12 20 -20 20 -8 0 -17 9 -20 20 -3 11 -12 20 -19 20 -8 0
-19 12 -24 26 -6 14 -14 22 -20 19 -6 -3 -15 6 -20 20 -5 14 -14 23 -20 20 -6
-3 -14 5 -20 19 -5 14 -16 26 -24 26 -8 0 -18 9 -21 20 -3 11 -12 20 -20 20
-8 0 -17 9 -20 20 -3 11 -12 20 -20 20 -8 0 -17 9 -20 20 -3 11 -13 20 -22 20
-8 0 -17 9 -20 20 -3 11 -12 20 -19 20 -8 0 -19 12 -24 26 -6 14 -14 22 -20
19 -6 -3 -15 6 -20 20 -5 14 -14 23 -20 20 -6 -3 -14 5 -20 19 -5 14 -16 26
-24 26 -8 0 -18 9 -21 20 -3 11 -12 20 -20 20 -8 0 -17 9 -20 20 -3 11 -12 20
-20 20 -8 0 -17 9 -20 20 -3 11 -13 20 -22 20 -8 0 -17 9 -20 20 -3 11 -12 20
-19 20 -8 0 -19 12 -24 26 -6 14 -14 22 -20 19 -6 -3 -15 6 -20 20 -5 14 -14
23 -20 20 -6 -3 -14 5 -20 19 -5 14 -16 26 -24 26 -8 0 -18 9 -21 20 -3 11
-12 20 -20 20 -8 0 -17 9 -20 20 -3 11 -12 20 -20 20 -8 0 -17 9 -20 20 -3 11
-13 20 -22 20 -8 0 -17 9 -20 20 -3 11 -12 20 -19 20 -8 0 -19 12 -24 26 -6
14 -14 22 -20 19 -6 -3 -15 6 -20 20 -5 14 -14 23 -20 20 -6 -3 -14 5 -20 19
-5 14 -16 26 -24 26 -8 0 -18 9 -21 20 -3 11 -12 20 -20 20 -8 0 -17 9 -20 20
-3 11 -12 20 -20 20 -8 0 -16 9 -20 19 -3 10 -15 21 -25 24 -11 3 -20 12 -20
21 0 9 -7 16 -15 16 -9 0 -20 12 -25 26 -6 14 -14 22 -20 19 -6 -3 -15 6 -20
20 -5 14 -14 23 -20 20 -6 -3 -15 6 -20 20 -6 17 -16 25 -24 22 -9 -4 -16 3
-20 19 -4 13 -13 24 -21 24 -7 0 -17 9 -20 20 -3 11 -12 20 -20 20 -8 0 -16 9
-20 19 -3 10 -15 21 -25 24 -11 3 -20 12 -20 21 0 9 -7 16 -15 16 -9 0 -20 12
-25 26 -6 14 -14 22 -20 19 -6 -3 -15 6 -20 20 -5 14 -14 23 -20 20 -6 -3 -14
5 -20 19 -5 14 -16 26 -24 26 -8 0 -18 9 -21 20 -3 11 -12 20 -20 20 -8 0 -17
9 -20 20 -3 11 -12 20 -20 20 -8 0 -16 9 -20 19 -3 10 -15 21 -25 24 -11 3
-20 12 -20 21 0 9 -7 16 -15 16 -9 0 -20 12 -25 26 -6 14 -14 22 -20 19 -6 -3
-15 6 -20 20 -5 14 -14 23 -20 20 -6 -3 -15 6 -20 20 -5 14 -14 23 -20 20 -5
-3 -15 5 -22 19 -6 14 -17 26 -24 26 -7 0 -16 9 -19 20 -3 11 -12 20 -20 20
-8 0 -16 9 -20 19 -3 10 -15 21 -25 24 -11 3 -20 12 -20 21 0 9 -7 16 -15 16
-9 0 -20 12 -25 26 -6 14 -14 22 -20 19 -6 -3 -15 6 -20 20 -5 14 -14 23 -20
20 -6 -3 -15 6 -20 20 -5 14 -14 23 -20 20 -6 -3 -14 5 -20 19 -5 14 -16 26
-24 26 -8 0 -18 9 -21 20 -3 11 -12 20 -20 20 -8 0 -16 9 -20 19 -3 10 -15 21
-25 24 -11 3 -20 12 -20 21 0 9 -7 16 -15 16 -9 0 -20 12 -25 26 -6 14 -14 22
-20 19 -6 -3 -15 6 -20 20 -5 14 -14 23 -20 20 -6 -3 -15 6 -20 20 -5 14 -14
23 -20 20 -6 -3 -14 5 -20 19 -5 14 -16 26 -24 26 -8 0 -18 9 -21 20 -3 11
-12 20 -20 20 -8 0 -16 9 -20 19 -3 10 -15 21 -25 24 -11 3 -20 12 -20 21 0 9
-7 16 -15 16 -9 0 -20 12 -25 26 -6 14 -14 22 -20 19 -6 -3 -15 6 -20 20 -5
14 -14 23 -20 20 -6 -3 -15 6 -20 20 -5 14 -14 23 -20 20 -6 -3 -14 5 -20 19
-5 14 -16 26 -24 26 -8 0 -18 9 -21 20 -3 11 -12 20 -20 20 -8 0 -16 9 -20 19
-3 10 -15 21 -25 24 -11 3 -20 12 -20 21 0 9 -7 16 -15 16 -9 0 -20 12 -25 26
-6 14 -14 22 -20 19 -6 -3 -15 6 -20 20 -5 14 -14 23 -20 20 -6 -3 -15 6 -20
20 -5 14 -14 23 -20 20 -5 -3 -15 5 -22 19 -6 14 -17 26 -24 26 -7 0 -16 9
-19 20 -3 11 -12 20 -20 20 -8 0 -16 9 -20 19 -3 10 -15 21 -25 24 -11 3 -20
12 -20 21 0 9 -7 16 -15 16 -9 0 -20 12 -25 26 -6 14 -14 22 -20 19 -6 -3 -15
6 -20 20 -5 14 -14 23 -20 20 -6 -3 -15 6 -20 20 -5 14 -14 23 -20 20 -6 -3
-14 5 -20 19 -5 14 -16 26 -24 26 -8 0 -18 9 -21 20 -3 11 -12 20 -20 20 -8 0
-16 9 -20 19 -3 10 -15 21 -25 24 -11 3 -20 12 -20 21 0 9 -7 16 -15 16 -9 0
-20 12 -25 26 -6 14 -14 22 -20 19 -6 -3 -15 6 -20 20 -5 14 -14 23 -20 20 -6
-3 -15 6 -20 20 -5 14 -14 23 -20 20 -6 -3 -14 5 -20 19 -5 14 -16 26 -24 26
-8 0 -18 9 -21 20 -3 11 -12 20 -20 20 -8 0 -16 9 -20 19 -3 10 -15 21 -25 24
-11 3 -20 12 -20 21 0 9 -7 16 -15 16 -9 0 -20 12 -25 26 -6 14 -14 22 -20 19
-6 -3 -15 6 -20 20 -5 14 -14 23 -20 20 -6 -3 -15 6 -20 20 -5 14 -14 23 -20
20 -6 -3 -14 5 -20 19 -5 14 -16 26 -24 26 -8 0 -18 9 -21 20 -3 11 -12 20
-20 20 -8 0 -16 9 -20 19 -3 10 -15 21 -25 24 -11 3 -20 12 -20 21 0 9 -7 16
-15 16 -9 0 -20 12 -25 26 -6 14 -14 22 -20 19 -6 -3 -15 6 -20 20 -5 14 -14
23 -20 20 -6 -3 -15 6 -20 20 -5 14 -14 23 -20 20 -6 -3 -14 5 -20 19 -5 14
-16 26 -24 26 -8 0 -18 9 -21 20 -3 11 -12 20 -20 20 -8 0 -17 9 -20 20 -3 11
-13 20 -22 20 -8 0 -17 9 -20 20 -3 11 -12 20 -19 20 -8 0 -19 12 -24 26 -6
14 -14 22 -20 19 -6 -3 -15 6 -20 20 -5 14 -14 23 -20 20 -6 -3 -15 6 -20 20
-5 14 -14 23 -20 20 -6 -3 -14 5 -20 19 -5 14 -16 26 -24 26 -8 0 -18 9 -21
20 -3 11 -12 20 -20 20 -8 0 -17 9 -20 20 -3 11 -13 20 -22 20 -8 0 -17 9 -20
20 -3 11 -12 20 -19 20 -8 0 -19 12 -24 26 -6 14 -14 22 -20 19 -6 -3 -15 6
-20 20 -5 14 -14 23 -20 20 -6 -3 -15 6 -20 20 -5 14 -14 23 -20 20 -6 -3 -14
5 -20 19 -5 14 -16 26 -24 26 -8 0 -18 9 -21 20 -3 11 -12 20 -20 20 -8 0 -17
9 -20 20 -3 11 -13 20 -22 20 -8 0 -17 9 -20 20 -3 11 -12 20 -19 20 -8 0 -19
12 -24 26 -6 14 -14 22 -20 19 -6 -3 -15 6 -20 20 -5 14 -14 23 -20 20 -6 -3
-15 6 -20 20 -5 14 -14 23 -20 20 -6 -3 -14 5 -20 19 -5 14 -16 26 -24 26 -8
0 -18 9 -21 20 -3 11 -12 20 -20 20 -8 0 -17 9 -20 20 -3 11 -12 20 -20 20 -8
0 -17 9 -20 20 -3 11 -15 20 -26 20 -13 0 -19 7 -19 21 0 12 -8 23 -20 26 -16
4 -20 14 -20 45 0 21 6 51 14 66 8 15 1305 1317 2883 2894 2735 2734 2870
2867 2915 2879 32 7 66 27 103 60 62 54 59 53 85 39 15 -8 27 -3 61 25 39 33
43 35 60 19 17 -15 20 -14 54 11 34 27 36 27 49 10 13 -18 15 -18 41 -1 23 15
31 16 52 5 20 -11 26 -10 40 4 22 22 39 22 51 0z m-7728 -7317 c6 -8 17 -13
23 -10 7 2 17 -6 22 -18 6 -13 16 -22 23 -20 7 1 12 -2 12 -8 0 -13 146 -160
159 -160 6 0 11 -5 11 -11 0 -12 55 -69 67 -69 4 0 13 -10 18 -22 6 -13 16
-22 23 -20 7 1 12 -2 12 -8 0 -13 146 -160 159 -160 6 0 11 -7 11 -16 0 -9 9
-18 20 -21 11 -3 20 -10 20 -15 0 -13 62 -74 72 -70 4 1 8 -2 8 -8 0 -13 186
-200 199 -200 6 0 11 -5 11 -11 0 -14 61 -75 72 -72 4 2 8 -1 8 -7 0 -13 186
-200 199 -200 6 0 11 -7 11 -16 0 -9 9 -18 20 -21 11 -3 20 -10 20 -15 0 -13
187 -198 200 -198 5 0 10 -5 10 -11 0 -14 55 -69 69 -69 6 0 11 -5 11 -11 0
-13 186 -199 200 -199 5 0 10 -5 10 -11 0 -12 55 -69 67 -69 4 0 13 -10 18
-22 6 -13 16 -22 23 -20 7 1 12 -2 12 -8 0 -13 146 -160 159 -160 6 0 11 -7
11 -16 0 -9 9 -18 20 -21 11 -3 20 -12 20 -20 0 -8 8 -17 18 -20 10 -2 22 -14
28 -26 5 -12 15 -21 22 -19 7 1 12 -2 12 -8 0 -13 186 -200 199 -200 6 0 11
-5 11 -11 0 -14 61 -75 72 -72 4 2 8 -1 8 -7 0 -13 186 -200 199 -200 6 0 11
-7 11 -16 0 -9 9 -18 20 -21 11 -3 20 -10 20 -15 0 -13 187 -198 200 -198 5 0
10 -7 10 -16 0 -9 9 -18 20 -21 11 -3 20 -12 20 -20 0 -8 9 -17 20 -20 11 -3
20 -10 20 -15 0 -13 187 -198 200 -198 5 0 10 -7 10 -16 0 -9 9 -18 20 -21 11
-3 20 -12 20 -20 0 -8 8 -17 18 -20 10 -2 22 -14 28 -26 5 -12 15 -21 22 -20
7 2 12 -1 12 -7 0 -13 146 -160 159 -160 6 0 11 -7 11 -16 0 -9 9 -18 20 -21
11 -3 20 -12 20 -20 0 -8 8 -17 18 -20 10 -2 22 -14 28 -26 5 -12 15 -21 22
-20 7 2 12 -1 12 -7 0 -13 146 -160 159 -160 6 0 11 -7 11 -16 0 -9 9 -18 20
-21 11 -3 20 -12 20 -20 0 -8 8 -17 18 -20 10 -2 22 -14 28 -26 5 -12 15 -21
22 -20 7 2 12 -1 12 -7 0 -13 186 -200 199 -200 6 0 11 -7 11 -16 0 -9 8 -18
18 -21 10 -2 22 -14 28 -26 5 -12 15 -21 22 -20 7 2 12 -1 12 -7 0 -13 226
-240 240 -240 5 0 10 -5 10 -11 0 -12 266 -279 278 -279 4 0 12 -10 17 -22 6
-13 16 -22 23 -20 7 1 12 -3 12 -9 0 -13 186 -199 200 -199 5 0 10 -7 10 -16
0 -9 8 -18 18 -21 10 -2 22 -14 28 -26 5 -12 15 -21 22 -19 7 1 12 -3 12 -9 0
-13 186 -199 200 -199 5 0 10 -7 10 -16 0 -9 9 -18 20 -21 11 -3 20 -12 20
-20 0 -8 9 -17 20 -20 11 -3 20 -10 20 -15 0 -13 187 -198 200 -198 5 0 10 -7
10 -16 0 -9 9 -18 20 -21 11 -3 20 -9 20 -14 0 -12 227 -239 240 -239 5 0 10
-7 10 -16 0 -9 9 -18 20 -21 11 -3 20 -9 20 -14 0 -12 267 -279 280 -279 5 0
10 -7 10 -16 0 -9 9 -18 20 -21 11 -3 20 -10 20 -15 0 -13 187 -198 200 -198
5 0 10 -5 10 -11 0 -6 13 -24 29 -40 16 -16 34 -29 40 -29 6 0 11 -5 11 -11 0
-13 186 -199 200 -199 5 0 10 -5 10 -11 0 -12 55 -69 67 -69 4 0 13 -10 18
-22 6 -13 16 -22 23 -20 7 1 12 -2 12 -8 0 -13 146 -160 159 -160 6 0 11 -7
11 -16 0 -9 9 -18 20 -21 11 -3 20 -10 20 -15 0 -13 62 -74 72 -70 4 1 8 -2 8
-8 0 -13 146 -160 159 -160 6 0 11 -7 11 -16 0 -9 9 -18 20 -21 11 -3 20 -10
20 -15 0 -13 62 -74 72 -70 4 1 8 -2 8 -8 0 -13 186 -200 199 -200 6 0 11 -7
11 -16 0 -9 9 -18 20 -21 11 -3 20 -10 20 -15 0 -13 187 -198 200 -198 5 0 10
-7 10 -16 0 -9 9 -18 20 -21 11 -3 20 -12 20 -20 0 -8 9 -17 20 -20 11 -3 20
-10 20 -15 0 -13 187 -198 200 -198 5 0 10 -5 10 -11 0 -12 55 -69 67 -69 4 0
13 -10 18 -22 6 -13 16 -22 23 -20 7 1 12 -2 12 -8 0 -13 146 -160 159 -160 6
0 11 -7 11 -16 0 -9 9 -18 20 -21 11 -3 20 -12 20 -20 0 -8 8 -17 18 -20 10
-2 22 -14 28 -26 5 -12 15 -21 22 -19 7 1 12 -2 12 -8 0 -13 146 -160 159
-160 6 0 11 -7 11 -16 0 -9 9 -18 20 -21 11 -3 20 -10 20 -15 0 -13 62 -74 72
-70 4 1 8 -2 8 -8 0 -13 186 -200 199 -200 6 0 11 -7 11 -16 0 -9 9 -18 20
-21 11 -3 20 -10 20 -15 0 -13 187 -198 200 -198 5 0 10 -7 10 -16 0 -9 9 -18
20 -21 11 -3 20 -12 20 -20 0 -8 9 -17 20 -20 11 -3 20 -10 20 -15 0 -13 187
-198 200 -198 5 0 10 -7 10 -16 0 -9 9 -18 20 -21 11 -3 20 -12 20 -20 0 -8 8
-17 18 -20 10 -2 22 -14 28 -26 5 -12 15 -21 22 -20 7 2 12 -1 12 -7 0 -13
146 -160 159 -160 6 0 11 -7 11 -16 0 -9 9 -18 20 -21 11 -3 20 -12 20 -20 0
-8 8 -17 18 -20 10 -2 22 -14 28 -26 5 -12 15 -21 22 -20 7 2 12 -1 12 -7 0
-13 146 -160 159 -160 6 0 11 -7 11 -16 0 -9 9 -18 20 -21 11 -3 20 -12 20
-20 0 -8 8 -17 18 -20 10 -2 22 -14 28 -26 5 -12 15 -21 22 -20 7 2 12 -1 12
-7 0 -13 186 -200 199 -200 6 0 11 -7 11 -16 0 -9 8 -18 18 -21 10 -2 22 -14
28 -26 5 -12 15 -21 22 -20 7 2 12 -1 12 -7 0 -13 186 -200 199 -200 6 0 11
-7 11 -16 0 -9 9 -18 20 -21 11 -3 20 -10 20 -15 0 -12 266 -278 278 -278 4 0
12 -10 17 -22 6 -13 16 -22 23 -21 7 2 12 -2 12 -8 0 -13 186 -199 200 -199 5
0 10 -7 10 -16 0 -9 8 -18 18 -21 10 -2 22 -14 28 -26 5 -12 15 -21 22 -20 7
2 12 -2 12 -8 0 -13 186 -199 200 -199 5 0 10 -7 10 -16 0 -9 9 -18 20 -21 11
-3 20 -12 20 -20 0 -8 9 -17 20 -20 11 -3 20 -10 20 -15 0 -13 187 -198 200
-198 5 0 10 -7 10 -16 0 -9 9 -18 20 -21 11 -3 20 -12 20 -20 0 -8 9 -17 20
-20 11 -3 20 -9 20 -14 0 -12 187 -199 199 -199 6 0 11 -7 11 -16 0 -9 9 -18
20 -21 11 -3 20 -9 20 -14 0 -12 267 -279 280 -279 5 0 10 -7 10 -15 0 -9 11
-20 25 -25 15 -6 25 -17 25 -29 0 -10 9 -21 20 -24 24 -6 27 -54 6 -95 -8 -15
-2933 -2945 -6500 -6512 -6161 -6161 -6488 -6486 -6538 -6502 -29 -10 -68 -33
-88 -51 -60 -56 -66 -60 -90 -47 -18 10 -26 7 -56 -19 -39 -35 -46 -36 -74
-19 -17 11 -24 8 -50 -17 -31 -29 -32 -29 -46 -11 -14 19 -14 19 -44 -2 -35
-26 -39 -27 -55 -6 -11 15 -14 15 -40 -2 -27 -17 -28 -17 -41 1 -13 17 -17 18
-35 7 -17 -11 -24 -11 -37 2 -13 11 -22 12 -36 4 -15 -9 -22 -7 -33 8 -12 16
-16 17 -35 5 -20 -12 -24 -11 -36 7 -11 17 -18 19 -33 11 -15 -8 -21 -6 -26 7
-4 11 -14 14 -34 10 -22 -4 -29 -1 -34 15 -5 14 -12 18 -25 14 -13 -4 -20 0
-25 15 -5 15 -12 19 -26 15 -11 -4 -26 0 -35 9 -8 9 -22 16 -29 16 -8 0 -19 9
-25 20 -6 11 -15 18 -20 15 -6 -3 -15 5 -21 19 -6 13 -17 22 -24 19 -7 -2 -16
5 -20 16 -3 12 -13 21 -21 21 -8 0 -19 12 -24 26 -6 14 -14 22 -20 19 -6 -3
-15 6 -20 20 -5 14 -14 23 -20 20 -6 -3 -14 5 -20 19 -5 14 -16 26 -24 26 -7
0 -16 9 -19 20 -3 11 -12 20 -20 20 -8 0 -17 9 -20 20 -3 11 -12 20 -20 20 -9
0 -19 9 -22 20 -3 11 -12 20 -20 20 -8 0 -17 9 -20 20 -3 11 -13 20 -21 20 -8
0 -19 12 -24 26 -6 14 -14 22 -20 19 -6 -3 -15 6 -20 20 -5 14 -14 23 -20 20
-6 -3 -14 5 -20 19 -5 14 -16 26 -24 26 -7 0 -16 9 -19 20 -3 11 -12 20 -20
20 -8 0 -17 9 -20 20 -3 11 -12 20 -21 20 -9 0 -18 11 -22 24 -3 15 -11 23
-19 20 -7 -3 -16 4 -20 15 -3 12 -13 21 -21 21 -8 0 -19 12 -24 26 -6 14 -14
22 -20 19 -6 -3 -15 6 -20 20 -5 14 -14 23 -20 20 -6 -3 -14 5 -20 19 -5 14
-16 26 -24 26 -7 0 -16 9 -19 20 -3 11 -12 20 -20 20 -9 0 -19 9 -22 20 -3 11
-12 20 -20 20 -8 0 -17 9 -20 20 -3 11 -12 20 -20 20 -8 0 -17 9 -20 20 -3 11
-13 20 -21 20 -8 0 -19 12 -24 26 -6 14 -14 22 -20 19 -6 -3 -15 6 -20 20 -5
14 -14 23 -20 20 -6 -3 -14 5 -20 19 -5 14 -16 26 -24 26 -7 0 -16 9 -19 20
-3 11 -12 20 -20 20 -8 0 -17 9 -20 20 -3 11 -12 20 -20 20 -9 0 -19 9 -22 20
-3 11 -13 20 -20 20 -8 0 -17 11 -21 24 -4 16 -11 23 -20 19 -8 -3 -18 5 -24
22 -5 14 -14 23 -20 20 -6 -3 -15 6 -20 20 -5 14 -14 23 -20 20 -6 -3 -14 5
-20 19 -5 14 -16 26 -24 26 -7 0 -16 9 -19 20 -3 11 -12 20 -20 20 -8 0 -18
11 -21 25 -4 15 -11 22 -20 19 -9 -3 -17 3 -21 15 -3 12 -12 21 -20 21 -8 0
-17 9 -20 20 -3 11 -13 20 -21 20 -8 0 -19 12 -24 26 -6 14 -14 22 -20 19 -6
-3 -15 6 -20 20 -5 14 -14 23 -20 20 -6 -3 -14 5 -20 19 -5 14 -16 26 -24 26
-7 0 -16 9 -19 20 -3 11 -12 20 -20 20 -8 0 -17 9 -20 20 -3 11 -12 20 -20 20
-9 0 -19 9 -22 20 -3 11 -12 20 -20 20 -8 0 -17 9 -20 20 -3 11 -13 20 -21 20
-8 0 -19 12 -24 26 -6 14 -14 22 -20 19 -6 -3 -15 6 -20 20 -5 14 -14 23 -20
20 -6 -3 -14 5 -20 19 -5 14 -16 26 -24 26 -7 0 -16 9 -19 20 -3 11 -12 20
-20 20 -8 0 -17 9 -20 20 -3 11 -12 20 -21 20 -9 0 -18 11 -22 24 -3 15 -11
23 -19 20 -7 -3 -16 4 -20 15 -3 12 -13 21 -21 21 -8 0 -19 12 -24 26 -6 14
-14 22 -20 19 -6 -3 -15 6 -20 20 -5 14 -14 23 -20 20 -6 -3 -14 5 -20 19 -5
14 -16 26 -24 26 -7 0 -16 9 -19 20 -3 11 -12 20 -20 20 -8 0 -17 9 -20 20 -3
11 -12 20 -20 20 -9 0 -19 9 -22 20 -3 11 -12 20 -20 20 -8 0 -17 9 -20 20 -3
11 -13 20 -21 20 -8 0 -19 12 -24 26 -6 14 -14 22 -20 19 -6 -3 -15 6 -20 20
-5 14 -14 23 -20 20 -6 -3 -14 5 -20 19 -5 14 -16 26 -24 26 -7 0 -16 9 -19
20 -3 11 -12 20 -20 20 -8 0 -17 9 -20 20 -3 11 -12 20 -20 20 -9 0 -19 9 -22
20 -3 11 -13 20 -20 20 -8 0 -17 11 -21 24 -4 16 -11 23 -20 19 -8 -3 -18 5
-24 22 -5 14 -14 23 -20 20 -6 -3 -15 6 -20 20 -5 14 -14 23 -20 20 -6 -3 -14
5 -20 19 -5 14 -16 26 -24 26 -7 0 -16 9 -19 20 -3 11 -12 20 -20 20 -8 0 -17
9 -20 20 -3 11 -12 20 -20 20 -9 0 -19 9 -22 20 -3 11 -12 20 -20 20 -8 0 -17
9 -20 20 -3 11 -13 20 -21 20 -8 0 -19 12 -24 26 -6 14 -14 22 -20 19 -6 -3
-15 6 -20 20 -5 14 -14 23 -20 20 -6 -3 -14 5 -20 19 -5 14 -16 26 -24 26 -7
0 -16 9 -19 20 -3 11 -12 20 -20 20 -8 0 -17 9 -20 20 -3 11 -12 20 -20 20 -9
0 -19 9 -22 20 -3 11 -12 20 -20 20 -8 0 -17 9 -20 20 -3 11 -13 20 -21 20 -8
0 -19 12 -24 26 -6 14 -14 22 -20 19 -6 -3 -15 6 -20 20 -5 14 -14 23 -20 20
-6 -3 -14 5 -20 19 -5 14 -16 26 -24 26 -7 0 -16 9 -19 20 -3 11 -12 20 -20
20 -8 0 -17 9 -20 20 -3 11 -12 20 -21 20 -9 0 -18 11 -22 24 -4 15 -11 23
-19 19 -9 -3 -17 5 -21 21 -3 14 -12 26 -20 26 -8 0 -14 4 -14 9 0 5 -9 20
-20 33 -37 43 -68 96 -75 128 -4 17 -13 34 -21 37 -7 3 -16 21 -19 41 -4 21
-14 55 -24 77 -30 65 -46 271 -31 395 32 280 107 412 457 812 59 68 116 144
134 180 17 35 42 77 55 94 69 93 197 427 232 610 46 232 47 248 47 489 0 200
-3 249 -18 297 -9 31 -17 78 -17 105 -1 26 -8 66 -16 88 -9 22 -20 64 -24 93
-5 30 -15 61 -23 70 -8 10 -17 37 -21 62 -4 24 -13 51 -20 60 -7 8 -16 32 -19
52 -3 20 -15 46 -26 57 -12 12 -21 32 -21 45 0 13 -7 29 -15 36 -8 7 -15 20
-15 30 0 9 -11 29 -25 44 -14 15 -25 33 -25 40 0 7 -9 21 -20 31 -11 10 -20
28 -20 40 0 22 -19 52 -57 90 -13 12 -23 27 -23 33 0 6 -6 15 -13 19 -6 4 -28
29 -47 56 -19 26 -45 59 -57 73 -13 14 -23 29 -23 35 0 5 -7 9 -15 9 -8 0 -15
6 -15 13 0 7 -11 23 -25 35 -14 12 -25 26 -25 32 0 5 -6 10 -14 10 -8 0 -18 9
-21 20 -3 11 -13 20 -20 20 -8 0 -19 9 -25 20 -6 11 -17 20 -25 20 -8 0 -15 6
-15 13 0 8 -11 19 -25 25 -14 6 -25 16 -25 22 0 5 -6 10 -13 10 -8 0 -22 9
-32 20 -10 11 -24 20 -31 20 -7 0 -18 9 -24 20 -6 11 -17 20 -25 20 -7 0 -16
9 -20 19 -3 11 -12 18 -19 15 -7 -3 -18 7 -24 20 -7 16 -17 24 -26 20 -9 -3
-17 3 -21 16 -5 15 -12 19 -27 14 -12 -3 -24 -1 -28 5 -4 7 -17 13 -28 14 -12
1 -25 9 -28 19 -3 10 -14 18 -24 18 -10 0 -22 9 -25 20 -5 15 -12 19 -29 14
-16 -4 -25 0 -29 9 -4 10 -13 13 -28 10 -14 -4 -25 0 -31 11 -5 9 -18 16 -28
16 -11 0 -20 3 -20 8 0 4 -4 13 -9 21 -8 13 -12 13 -26 1 -15 -12 -19 -12 -30
4 -9 12 -20 16 -34 11 -12 -3 -21 -3 -21 2 -1 24 -18 35 -38 24 -16 -8 -21 -7
-26 5 -4 11 -14 15 -32 11 -20 -3 -28 0 -31 14 -6 22 -23 25 -41 7 -9 -9 -16
-8 -30 5 -10 9 -27 14 -38 11 -16 -4 -23 0 -27 17 -6 22 -7 22 -25 6 -25 -22
-39 -21 -47 3 -8 24 -18 25 -35 5 -12 -14 -15 -14 -31 1 -11 10 -25 13 -39 9
-15 -5 -26 -1 -35 11 -13 18 -14 18 -36 -1 -12 -11 -24 -15 -26 -10 -12 35
-21 39 -41 22 -23 -21 -41 -22 -48 -2 -8 20 -23 19 -47 -3 -19 -16 -20 -16
-35 6 l-15 23 -25 -23 -24 -23 -15 22 -15 22 -29 -21 c-29 -21 -29 -21 -43 -2
-14 19 -15 19 -44 -3 l-30 -22 -15 22 -15 22 -26 -24 c-23 -22 -29 -23 -50
-12 -21 12 -28 10 -55 -10 -30 -22 -32 -22 -45 -4 -13 17 -15 17 -50 -10 -35
-27 -37 -27 -50 -9 -13 17 -15 17 -51 -10 -33 -25 -39 -27 -61 -15 -22 11 -27
10 -59 -21 -32 -31 -37 -33 -59 -20 -23 12 -28 10 -62 -19 -29 -26 -42 -31
-65 -26 -24 5 -38 -1 -85 -40 -40 -32 -60 -43 -68 -35 -18 18 -36 11 -89 -39
-62 -58 -87 -72 -114 -65 -16 4 -39 -11 -95 -63 -144 -134 -329 -287 -378
-313 -14 -7 -47 -34 -75 -60 -70 -65 -103 -86 -117 -72 -13 13 -40 1 -81 -36
-24 -23 -30 -25 -48 -14 -21 14 -23 13 -85 -33 -10 -7 -18 -4 -28 10 -14 20
-15 20 -40 -4 -23 -22 -29 -23 -51 -11 -20 11 -28 10 -49 -3 -23 -16 -26 -16
-35 0 -8 15 -13 15 -37 4 -25 -11 -30 -10 -41 5 -11 15 -16 16 -38 4 -22 -12
-27 -11 -38 5 -12 15 -17 16 -37 5 -20 -11 -25 -10 -36 5 -8 11 -19 15 -33 10
-12 -3 -21 -3 -21 2 0 4 -4 14 -9 21 -7 12 -12 12 -30 0 -19 -11 -23 -11 -32
5 -6 9 -19 17 -29 17 -11 0 -20 3 -20 8 0 4 -4 13 -9 21 -8 12 -12 12 -25 2
-13 -11 -17 -11 -22 3 -3 9 -16 16 -28 16 -12 0 -27 9 -34 20 -7 11 -19 20
-26 20 -8 0 -18 9 -21 21 -4 11 -13 18 -20 16 -7 -3 -18 6 -24 19 -6 14 -16
22 -21 19 -6 -3 -15 6 -20 20 -5 14 -14 23 -20 20 -6 -3 -14 5 -20 19 -5 14
-16 26 -25 26 -8 0 -15 7 -15 16 0 9 -9 18 -19 21 -11 3 -22 16 -25 29 -4 15
-11 21 -20 18 -9 -3 -17 3 -21 15 -3 12 -12 21 -20 21 -8 0 -17 9 -20 20 -3
11 -13 20 -21 20 -8 0 -19 12 -24 26 -6 14 -14 22 -20 19 -6 -3 -15 6 -20 20
-5 14 -14 23 -20 20 -6 -3 -14 5 -20 19 -5 14 -16 26 -25 26 -8 0 -15 7 -15
16 0 9 -9 18 -20 21 -11 3 -20 12 -20 20 0 8 -9 17 -20 20 -10 3 -22 14 -25
24 -4 10 -12 19 -20 19 -8 0 -17 9 -20 20 -3 11 -13 20 -21 20 -8 0 -19 12
-24 26 -6 14 -14 22 -20 19 -6 -3 -15 6 -20 20 -5 14 -14 23 -20 20 -6 -3 -14
5 -20 19 -5 14 -16 26 -25 26 -8 0 -15 7 -15 16 0 9 -9 18 -20 21 -11 3 -20
12 -20 20 0 8 -9 17 -20 20 -11 3 -23 16 -26 29 -3 13 -11 21 -19 18 -7 -3
-16 4 -20 15 -3 12 -13 21 -21 21 -8 0 -19 12 -24 26 -6 14 -14 22 -20 19 -6
-3 -15 6 -20 20 -5 14 -14 23 -20 20 -6 -3 -14 5 -20 19 -5 14 -16 26 -25 26
-8 0 -15 7 -15 16 0 9 -9 18 -20 21 -11 3 -20 12 -20 20 0 8 -9 17 -20 20 -10
3 -22 14 -25 24 -4 10 -13 19 -20 19 -8 0 -17 11 -21 24 -4 16 -11 23 -20 19
-8 -3 -18 5 -24 22 -5 14 -14 23 -20 20 -6 -3 -15 6 -20 20 -5 14 -14 23 -20
20 -6 -3 -14 5 -20 19 -5 14 -16 26 -25 26 -8 0 -15 7 -15 16 0 9 -9 18 -20
21 -11 3 -20 12 -20 20 0 8 -9 17 -20 20 -10 3 -22 14 -25 24 -4 10 -13 19
-20 19 -8 0 -17 11 -21 24 -4 16 -11 23 -20 19 -8 -3 -18 5 -24 22 -5 14 -14
23 -20 20 -6 -3 -15 6 -20 20 -5 14 -14 23 -20 20 -6 -3 -14 5 -20 19 -5 14
-16 26 -25 26 -8 0 -15 7 -15 16 0 9 -9 18 -20 21 -11 3 -20 12 -20 20 0 8 -9
17 -20 20 -10 3 -22 14 -25 24 -4 10 -12 19 -20 19 -8 0 -17 9 -20 20 -3 11
-13 20 -21 20 -8 0 -19 12 -24 26 -6 14 -14 22 -20 19 -6 -3 -15 6 -20 20 -5
14 -14 23 -20 20 -6 -3 -14 5 -20 19 -5 14 -16 26 -25 26 -8 0 -15 7 -15 16 0
9 -9 18 -20 21 -11 3 -20 12 -20 20 0 8 -9 17 -20 20 -10 3 -22 14 -25 24 -4
10 -12 19 -20 19 -8 0 -17 9 -20 20 -3 11 -13 20 -21 20 -8 0 -19 12 -24 26
-6 14 -14 22 -20 19 -6 -3 -15 6 -20 20 -5 14 -14 23 -20 20 -6 -3 -15 6 -20
20 -5 14 -14 23 -20 20 -6 -3 -14 5 -20 19 -5 14 -16 26 -25 26 -8 0 -15 7
-15 16 0 9 -9 18 -20 21 -11 3 -23 16 -26 29 -3 13 -11 21 -19 18 -7 -3 -16 4
-20 15 -3 12 -13 21 -21 21 -8 0 -19 12 -24 26 -6 14 -14 22 -20 19 -6 -3 -15
6 -20 20 -5 14 -14 23 -20 20 -6 -3 -15 6 -20 20 -5 14 -14 23 -20 20 -6 -3
-14 5 -20 19 -5 14 -16 26 -25 26 -8 0 -15 7 -15 16 0 9 -9 18 -20 21 -10 3
-22 14 -25 24 -4 10 -12 19 -20 19 -8 0 -17 9 -20 20 -3 11 -13 20 -21 20 -8
0 -19 12 -24 26 -6 14 -14 22 -20 19 -6 -3 -15 6 -20 20 -5 14 -14 23 -20 20
-6 -3 -15 6 -20 20 -5 14 -14 23 -20 20 -6 -3 -14 5 -20 19 -5 14 -16 26 -25
26 -8 0 -15 7 -15 16 0 9 -9 18 -20 21 -10 3 -22 14 -25 24 -4 10 -13 19 -20
19 -8 0 -17 11 -21 24 -4 16 -11 23 -20 19 -8 -3 -18 5 -24 22 -5 14 -14 23
-20 20 -6 -3 -15 6 -20 20 -5 14 -14 23 -20 20 -6 -3 -15 6 -20 20 -5 14 -14
23 -20 20 -6 -3 -14 5 -20 19 -5 14 -16 26 -25 26 -8 0 -15 7 -15 16 0 9 -9
18 -20 21 -10 3 -22 14 -25 24 -4 10 -12 19 -20 19 -8 0 -17 9 -20 20 -3 11
-12 20 -19 20 -7 0 -18 12 -24 26 -7 14 -17 22 -22 19 -6 -3 -15 6 -20 20 -5
14 -14 23 -20 20 -6 -3 -15 6 -20 20 -5 14 -14 23 -20 20 -6 -3 -14 5 -20 19
-5 14 -16 26 -25 26 -8 0 -15 7 -15 16 0 9 -9 18 -20 21 -10 3 -22 14 -25 24
-4 10 -12 19 -20 19 -8 0 -17 9 -20 20 -3 11 -13 20 -20 20 -8 0 -17 11 -21
25 -3 14 -13 25 -21 25 -8 0 -17 9 -20 20 -3 11 -12 20 -19 20 -8 0 -14 4 -14
8 0 5 -13 29 -30 53 -16 24 -30 54 -30 67 0 12 -7 25 -15 28 -8 3 -17 22 -21
42 -3 21 -13 47 -21 60 -8 13 -18 47 -23 75 -5 29 -16 86 -26 127 -19 89 -15
178 16 323 44 204 132 373 277 531 134 148 12886 12896 12899 12896 6 0 17 -6
24 -14z"/>
<path d="M17970 22988 c-186 -40 -303 -118 -374 -249 -56 -105 -58 -118 -65
-490 l-6 -346 -28 -37 c-39 -50 -54 -59 -203 -115 -71 -27 -165 -66 -209 -86
-143 -67 -166 -75 -213 -75 -28 0 -59 8 -77 18 -16 11 -123 111 -237 224 -249
249 -295 282 -427 314 -114 27 -246 8 -356 -52 -68 -37 -872 -840 -904 -903
-46 -90 -55 -132 -55 -246 -1 -70 4 -123 13 -145 51 -130 55 -136 385 -467
274 -274 327 -323 361 -332 82 -21 167 30 193 115 24 80 16 91 -309 419 -163
165 -302 311 -309 324 -24 48 -30 84 -18 130 10 42 41 76 382 420 204 205 391
386 415 402 53 34 130 40 171 12 14 -9 122 -111 240 -228 229 -225 271 -259
365 -295 50 -20 78 -24 175 -24 125 0 114 -3 386 119 70 32 80 36 159 65 133
49 166 65 226 110 75 56 124 122 159 212 l30 77 0 306 c0 195 4 323 11 353 14
55 49 106 93 133 30 18 57 19 589 19 461 0 563 -2 585 -14 36 -19 78 -65 91
-99 7 -18 11 -138 11 -319 0 -168 5 -319 11 -357 13 -79 56 -174 105 -233 35
-41 140 -128 157 -128 4 0 26 -8 50 -19 23 -10 69 -29 102 -41 33 -12 71 -27
85 -32 14 -6 34 -14 45 -19 11 -4 56 -25 100 -45 248 -113 373 -122 544 -38
66 33 101 63 298 257 123 121 237 229 253 239 43 26 123 24 163 -3 47 -32 743
-727 778 -776 38 -54 41 -137 7 -186 -12 -18 -119 -131 -238 -252 -196 -198
-221 -227 -253 -295 -20 -42 -40 -107 -47 -147 -18 -112 -2 -186 85 -383 40
-91 87 -205 105 -255 44 -121 83 -195 135 -248 45 -48 146 -117 170 -117 7 0
16 -4 19 -9 12 -18 89 -24 416 -30 290 -5 339 -8 366 -23 43 -23 81 -71 94
-116 14 -51 14 -1054 -1 -1105 -15 -54 -73 -109 -132 -124 -33 -9 -140 -13
-351 -13 -295 0 -306 -1 -375 -24 -91 -31 -160 -75 -215 -138 -52 -59 -80
-115 -140 -274 -24 -66 -63 -159 -86 -209 -90 -193 -109 -276 -90 -392 25
-155 55 -199 325 -473 117 -118 218 -225 224 -237 6 -12 11 -47 11 -78 0 -46
-5 -64 -29 -98 -16 -23 -193 -205 -393 -404 -368 -367 -400 -393 -470 -393
-65 0 -101 30 -403 330 -165 164 -313 304 -328 309 -72 28 -156 4 -195 -55
-26 -40 -30 -120 -8 -162 8 -15 155 -167 328 -338 228 -226 327 -318 363 -337
164 -82 341 -80 495 5 70 39 853 819 893 889 106 186 88 412 -45 572 -24 28
-130 138 -236 245 -115 116 -198 208 -207 229 -27 65 -23 88 49 246 65 143 76
168 76 177 0 6 4 18 9 28 10 20 21 47 52 126 28 74 73 120 132 135 30 7 153
11 344 11 260 0 307 2 365 19 188 51 329 211 353 396 3 30 11 57 16 60 12 8
12 1042 0 1049 -5 3 -12 31 -16 62 -7 55 -11 71 -41 140 -35 80 -115 165 -204
216 -99 57 -128 61 -480 65 -179 2 -335 6 -347 8 -38 9 -92 65 -118 122 -14
29 -25 57 -25 61 0 5 -16 48 -36 98 -35 87 -52 127 -99 229 -39 86 -45 105
-45 134 0 65 31 105 260 336 158 160 235 245 253 280 79 158 80 320 0 480 -34
68 -833 869 -908 909 -143 78 -311 85 -455 18 -68 -31 -93 -53 -331 -283 -122
-118 -231 -219 -243 -226 -11 -7 -42 -12 -68 -13 -47 0 -70 8 -213 75 -44 20
-138 59 -209 86 -149 56 -164 65 -203 116 l-28 36 -6 351 c-7 378 -7 377 -66
487 -61 112 -200 213 -333 241 -71 15 -1105 20 -1170 6z"/>
<path d="M18375 20614 c-503 -41 -993 -256 -1337 -586 -102 -99 -119 -158 -67
-243 26 -43 72 -67 130 -67 58 0 95 21 191 110 214 197 500 353 778 422 48 12
171 36 255 50 123 21 478 3 613 -30 23 -5 59 -14 80 -19 155 -36 403 -147 552
-247 394 -263 673 -653 785 -1094 43 -170 57 -284 56 -465 0 -94 -6 -215 -15
-270 -52 -359 -218 -717 -453 -975 -117 -128 -123 -138 -123 -209 0 -63 1 -65
45 -108 42 -40 49 -43 100 -43 70 0 97 17 197 129 172 191 290 381 409 656 36
84 98 310 118 430 7 39 16 95 21 126 6 30 10 142 10 249 0 107 -4 219 -10 249
-5 31 -14 88 -20 126 -6 39 -15 86 -20 105 -33 135 -48 187 -60 215 -5 11 -19
49 -31 85 -86 253 -277 548 -498 767 -341 341 -752 547 -1225 618 -108 16
-384 27 -481 19z"/>
<path d="M15845 19580 c-113 -39 -199 -104 -261 -197 -62 -93 -75 -146 -83
-338 -9 -214 -24 -246 -131 -293 -255 -112 -254 -112 -430 53 -118 112 -163
143 -245 170 -60 21 -171 28 -235 16 -167 -31 -187 -45 -506 -365 -149 -149
-286 -296 -306 -326 -57 -88 -78 -162 -78 -270 0 -161 41 -250 186 -400 56
-58 109 -120 118 -137 20 -41 21 -109 0 -159 -62 -150 -84 -192 -121 -224 -39
-34 -55 -37 -243 -44 -191 -7 -271 -33 -376 -122 -93 -78 -144 -177 -173 -330
-7 -37 -11 -187 -11 -385 0 -287 2 -336 20 -418 26 -121 61 -190 136 -266 114
-115 236 -155 475 -155 95 0 119 -3 145 -19 29 -18 84 -79 84 -94 0 -4 11 -30
24 -59 48 -105 56 -131 56 -175 0 -58 -16 -86 -90 -158 -115 -112 -188 -217
-219 -316 -14 -46 -14 -222 0 -268 44 -138 87 -187 540 -626 177 -171 249
-208 413 -208 167 1 247 39 414 196 157 149 180 153 364 72 171 -75 179 -90
188 -315 7 -174 19 -230 66 -314 49 -89 170 -191 257 -218 101 -31 189 -38
512 -38 444 0 507 12 647 118 61 46 103 98 135 168 43 94 53 150 53 295 0 204
15 228 182 302 192 84 211 80 373 -73 161 -153 244 -193 405 -193 100 0 139 9
230 52 45 21 112 82 356 326 269 268 305 307 334 367 42 88 61 202 49 282 -23
142 -54 199 -183 334 -57 60 -111 123 -120 140 -28 54 -21 114 30 231 75 175
96 191 264 191 150 0 279 23 350 63 105 58 175 131 220 230 49 110 52 140 48
577 -3 376 -5 409 -23 460 -59 161 -156 260 -310 316 -56 21 -92 25 -224 30
-86 3 -171 10 -188 16 -50 15 -95 77 -141 192 -46 114 -52 168 -26 218 9 17
64 81 122 142 120 125 155 188 177 313 19 106 5 191 -47 303 -39 81 -50 94
-302 345 -318 316 -348 342 -462 381 -62 22 -242 25 -294 5 -105 -40 -146 -68
-255 -172 -157 -148 -189 -160 -306 -113 -176 71 -207 91 -240 156 -16 31 -19
59 -19 179 0 113 -4 156 -20 209 -50 166 -157 280 -316 336 -69 24 -69 24
-504 23 -386 -1 -441 -3 -485 -19z m917 -318 c70 -43 80 -74 90 -259 4 -91 13
-183 19 -206 19 -75 69 -161 127 -219 62 -64 130 -102 297 -169 108 -43 112
-44 225 -44 175 0 246 34 422 202 53 51 109 98 123 103 38 15 102 12 139 -5
48 -23 552 -532 571 -577 34 -83 14 -131 -109 -257 -162 -167 -198 -242 -199
-411 0 -71 5 -119 15 -150 111 -314 199 -422 404 -499 17 -7 110 -16 206 -20
198 -9 226 -18 270 -89 23 -37 23 -37 23 -433 l0 -395 -25 -37 c-47 -69 -83
-80 -275 -87 -136 -6 -180 -11 -222 -28 -178 -69 -252 -158 -364 -442 -31 -79
-33 -93 -33 -195 2 -175 34 -240 205 -421 114 -120 130 -154 109 -231 -12 -44
-37 -72 -289 -324 -268 -269 -277 -277 -323 -283 -88 -13 -111 -2 -223 104
-154 146 -221 186 -353 210 -112 21 -225 -7 -438 -106 -133 -62 -221 -157
-268 -286 -23 -63 -27 -97 -34 -245 -10 -195 -19 -220 -97 -265 -40 -23 -42
-23 -420 -23 l-380 0 -43 25 c-26 14 -54 42 -68 66 -22 37 -24 52 -24 166 0
116 -11 215 -29 263 -69 179 -174 268 -421 360 -25 9 -54 21 -65 25 -59 25
-154 33 -227 20 -123 -21 -204 -68 -334 -191 -125 -119 -158 -135 -242 -123
-45 6 -56 16 -310 268 -145 143 -271 275 -282 291 -26 43 -33 87 -20 134 8 30
38 70 119 157 117 124 161 196 186 299 32 134 9 242 -102 485 -44 97 -128 186
-217 232 -86 44 -119 50 -291 57 -156 6 -174 9 -213 31 -26 15 -54 42 -68 66
l-24 41 0 384 0 385 29 46 c46 72 69 80 270 89 176 8 193 11 291 57 76 35 178
139 217 222 113 234 140 359 109 493 -27 112 -66 175 -184 299 -119 126 -139
163 -126 236 10 54 35 84 286 335 271 269 293 287 359 287 72 0 93 -12 198
-113 173 -167 243 -201 421 -202 108 0 120 2 200 34 187 74 252 111 320 180
114 115 150 224 150 454 0 110 2 124 25 162 26 46 63 74 110 86 16 4 197 7
400 6 367 -2 370 -2 407 -25z"/>
<path d="M16120 17728 c-25 -5 -70 -14 -100 -19 -112 -21 -307 -91 -393 -141
-26 -15 -50 -28 -53 -28 -19 0 -196 -133 -272 -205 -191 -180 -331 -401 -407
-640 -98 -312 -99 -600 -3 -910 145 -464 497 -827 953 -982 381 -129 770 -108
1134 63 196 92 463 285 556 404 94 118 186 313 243 515 51 177 64 286 59 478
-3 100 -10 207 -15 237 -34 195 -137 442 -253 605 -76 107 -229 263 -319 327
-65 46 -228 148 -236 148 -2 0 -26 10 -52 21 -100 45 -128 57 -162 67 -64 20
-204 51 -283 61 -93 13 -334 12 -397 -1z m435 -325 c450 -86 810 -421 933
-868 31 -113 36 -159 36 -310 -1 -129 -5 -177 -23 -250 -57 -230 -151 -403
-310 -568 -110 -114 -192 -176 -316 -236 -129 -64 -204 -89 -360 -120 -68 -14
-325 -10 -415 7 -210 38 -447 167 -611 331 -228 228 -349 519 -349 840 0 323
122 616 354 847 210 209 448 317 766 348 61 6 212 -5 295 -21z"/>
</g>
</svg>
