<?xml version="1.0" encoding="utf-8"?>
<!-- Generator: Adobe Illustrator 25.4.1, SVG Export Plug-In . SVG Version: 6.00 Build 0)  -->
<svg version="1.1" id="Calque_1" xmlns="http://www.w3.org/2000/svg" xmlns:xlink="http://www.w3.org/1999/xlink" x="0px" y="0px"
	 viewBox="0 0 5232 945" style="enable-background:new 0 0 5232 945;" xml:space="preserve">
<style type="text/css">
	.st0{fill-rule:evenodd;clip-rule:evenodd;fill:#5865F2;}
	.st1{fill:#5865F2;}
	.st2{fill:#5865F2;stroke:#5865F2;stroke-width:50;stroke-miterlimit:10;}
</style>
<path class="st0" d="M2881.7,227.4c0-44.7-8.4-83.6-25.3-117.3c-17.5-33.1-42.8-59-76.5-77.8c-33.7-18.8-74.5-27.9-123.1-27.9
	h-180.2v453.6h153.3h18.5c45,0,79.5-7.1,111.5-23.3c0-1.1-0.1-2.3-0.1-3.4c0-52.2,42.2-94.6,94.3-94.6c1.5,0,3.1,0,4.6,0.1
	C2875.1,303.7,2881.7,270.7,2881.7,227.4z M2585.5,101.7v259.2h61.6c39.5,0,69.3-11.7,89.4-35.6c20.1-23.3,30.5-55.1,30.5-95.9
	c0-40.2-9.7-71.3-29.2-94c-19.4-22.7-48.6-33.7-86.8-33.7H2585.5z"/>
<path class="st1" d="M171.9,467.6c49.9,0,92.7-9.7,127.8-29.8c35-19.5,61.6-46.7,79.1-81.7c17.5-34.4,26.6-74.6,26.6-119.3
	c0-44.8-8.4-83.7-25.3-117.4c-17.5-33.1-42.8-59-76.5-77.8s-74.6-27.9-123.2-27.9H0v454H171.9z M109,370.4V110.9h65.5
	c38.3,0,67.4,11,86.9,33.7c19.5,22.7,29.2,53.8,29.2,94c0,40.9-10.4,72.6-30.5,96c-20.1,24-49.9,35.7-89.5,35.7H109z M590.3,13.6
	h-109v454h109V13.6z M833.7,481.3c53.8,0,96.6-13,127.8-39.6c30.5-25.9,46-61.6,46-106.4c0-33.7-9.7-61.6-29.2-83.7
	c-19.5-21.4-50.6-39.6-94-53.2l-46.7-14.9c-17.5-7.1-29.8-14.3-37.6-21.4c-8.4-7.1-12.3-15.6-12.3-26.6c0-27.2,21.4-40.9,64.9-40.9
	c46,0,90.1,14.9,132.9,45.4V40.2C940,13.6,892,0,840.8,0c-52.5,0-94,12.3-123.9,37c-29.8,25.3-44.8,59-44.8,102.5
	c0,32.4,9.1,59,26.6,79.8c17.5,21.4,46,38.3,85,51.9l53.2,17.5c18.8,7.8,31.8,14.9,38.9,22.1c7.1,7.1,10.4,16.9,10.4,27.9
	c0,31.1-21.4,46.7-64.9,46.7c-25.9,0-51.9-5.2-78.5-14.9c-26.6-9.7-49.9-22.1-70.7-38.3v101.2C720.8,465,774.7,481.3,833.7,481.3z
	 M1297.7,480.6c27.9,0,55.1-3.9,80.4-11c25.3-7.1,47.4-16.9,66.2-29.2v-99.2c-16.9,11.7-35.7,20.8-57.1,27.9
	c-21.4,7.1-42.8,11-64.9,11c-30.5,0-57.7-5.8-80.4-18.2c-22.7-11.7-40.2-27.9-52.5-49.3c-12.3-21.4-18.8-45.4-18.8-72.6
	s6.5-51.2,18.8-72.6c12.3-21.4,29.8-37.6,52.5-49.3c22.7-11.7,48.6-17.5,79.1-17.5c44.1,0,84.3,13.6,121.3,40.2V37.6
	c-42.2-24.6-89.5-37-143.3-37c-48.7,0-91.5,10.4-127.8,31.1c-37,20.8-64.9,49.3-85,86.3c-20.1,37-29.8,78.5-29.8,125.2
	c0,44.1,9.7,84.3,28.5,120c18.8,36.3,46.7,64.9,83,85.6C1204.3,470.2,1247.8,480.6,1297.7,480.6z M1732.1,480.6
	c46,0,86.9-10.4,123.2-30.5c35.7-20.1,64.2-48.6,84.3-85c20.1-36.3,29.8-77.8,29.8-123.9s-9.7-87.6-29.8-124.5
	c-20.1-36.3-48.6-64.9-84.3-85.6C1819,11,1778.1,0.6,1732.1,0.6c-45.4,0-86.2,10.4-121.9,30.5c-35.7,20.8-63.6,49.3-83.7,85.6
	c-20.1,37-30.5,78.5-30.5,124.5s10.4,87.6,30.5,123.9c20.1,36.3,48,64.9,83.7,85C1645.8,470.2,1686.7,480.6,1732.1,480.6z
	 M1732.1,377.5c-24.6,0-46-5.8-64.2-17.5c-18.8-11.7-33.1-27.9-42.8-48.6c-9.7-20.1-14.9-43.5-14.9-69.4c0-25.9,5.2-49.3,14.9-70.7
	c9.7-20.8,24-37,42.8-49.3c18.2-12.3,39.6-18.2,64.2-18.2c25.3,0,46.7,5.8,65.5,18.2c18.8,12.3,33.1,28.5,42.8,49.3
	c9.7,21.4,14.3,44.8,14.3,70.7c0,25.9-5.2,49.3-14.9,69.4c-9.7,20.8-24,37-42.2,48.6C1778.8,371.6,1757.4,377.5,1732.1,377.5z
	 M2282.4,284.7c39.6-4.5,69.4-18.8,90.8-42.2c21.4-23.3,31.8-53.2,31.8-88.9c0-43.5-14.3-77.2-43.5-102.5
	c-29.2-25.3-68.7-37.6-118-37.6h-199.8v454h109V276.3L2287,467.6h130.4L2282.4,284.7z M2152.7,105.1h70c21.4,0,37.6,5.2,48.6,14.9
	c11,10.4,16.9,25.3,16.9,44.1c0,20.1-6.5,35-18.8,46.1c-12.3,11-30.5,16.2-54.5,16.2h-62.3V105.1z"/>
<path class="st1" d="M3082.3,500.3H2859c-32.6,0-59.1-26.4-59.1-59.1v-1.1c0-32.6,26.4-59.1,59.1-59.1h282.3v60.1
	C3141.4,473.9,3114.9,500.3,3082.3,500.3z"/>
<path class="st2" d="M3289,405.3v56.1h-132.9v380.5h-53.5V461.4h-134.5v-56.1H3289z"/>
<path class="st2" d="M3434.1,841.9V404.7h54v437.2H3434.1z"/>
<path class="st2" d="M3826.8,854.4c-65.6,0-117.9-21.7-156.9-65.2c-39.1-43.4-58.6-98-58.6-163.7c0-68.2,20.4-124,61.3-167.5
	c40.9-43.4,93.4-65.2,157.5-65.2c57.3,0,103.5,16.2,138.8,48.6v66.1c-39.6-37.4-85.2-56.1-136.7-56.1c-49.7,0-89.6,16-119.7,48
	c-30.1,32-45.1,73-45.1,122.9c0,50.3,15,91.7,45.1,124.1c30.1,32.4,70.1,48.6,120.2,48.6c54,0,100.3-20,138.8-59.9v63
	C3933.1,835.6,3884.8,854.4,3826.8,854.4z"/>
<path class="st2" d="M4428.1,841.9h-76.7l-203.7-217.7v217.7h-54V405.3h54v191.5l199.4-191.5h75.6l-215.6,202.1L4428.1,841.9z"/>
<path class="st2" d="M4579.4,785.7h228v56.1h-282V405.3h279.3v56.1h-225.3v122.9h210.7v54.9h-210.7V785.7z"/>
<path class="st2" d="M5207.1,405.3v56.1h-132.9v380.5h-53.5V461.4h-134.5v-56.1H5207.1z"/>
</svg>
